<svg xmlns="http://www.w3.org/2000/svg" version="1.1" xmlns:xlink="http://www.w3.org/1999/xlink" xmlns:svgjs="http://svgjs.dev/svgjs" width="1000" height="1000" viewBox="0 0 1000 1000"><g transform="matrix(1,0,0,1,0,0)"><svg viewBox="0 0 280 280" data-background-color="#28353b" preserveAspectRatio="xMidYMid meet" height="1000" width="1000" xmlns="http://www.w3.org/2000/svg" xmlns:xlink="http://www.w3.org/1999/xlink"><g id="tight-bounds" transform="matrix(1,0,0,1,0,0)"><svg viewBox="0 0 280 280" height="280" width="280"><g><svg viewBox="0 0 280 280" height="280" width="280"><g transform="matrix(1,0,0,1,60.80404050710668,127.83483844306129)"><svg viewBox="0 0 158.39191898578665 24.33032311387743" height="24.33032311387743" width="158.39191898578665"><g><svg viewBox="0 0 193.1250893938801 29.66562850198951" height="24.33032311387743" width="158.39191898578665"><g transform="matrix(1,0,0,1,0,4.099952998465989)"><svg viewBox="0 0 158.39191898578665 21.46572250505753" height="21.46572250505753" width="158.39191898578665"><g id="textblocktransform"><svg viewBox="0 0 158.39191898578665 21.46572250505753" height="21.46572250505753" width="158.39191898578665" id="textblock"><g><svg viewBox="0 0 158.39191898578665 21.46572250505753" height="21.46572250505753" width="158.39191898578665"><g transform="matrix(1,0,0,1,0,0)"><svg width="158.39191898578665" viewBox="1.9000000953674316 -35.099998474121094 264.8800048828125 35.89999771118164" height="21.46572250505753" data-palette-color="#ffffff"><path d="M7.1-32.25Q6.1-32.25 5.55-32.1 5-31.95 4.55-31.65L4.55-31.65Q4.15-31.3 4-30.85 3.85-30.4 3.8-29.75L3.8-29.75 1.9-29.75Q2-31.9 3.3-33.1L3.3-33.1Q4.5-34.2 7.15-34.2L7.15-34.2 28.6-34.2 28.6-32.2 9.2-32.2 9.2-19.15 22.5-19.15 22.5-17.15 9.2-17.15 9.2 0 7.1 0 7.1-32.25ZM30.15 0.45Q28.75 0.45 27.7-0.38 26.65-1.2 26.25-2.65L26.25-2.65 28.2-2.95Q28.4-2.4 28.95-1.98 29.5-1.55 30.2-1.55L30.2-1.55Q30.8-1.55 31.32-1.98 31.85-2.4 32.05-2.9L32.05-2.9 45.3-34.6 45.7-34.6 60.15-0.05 57.9-0.05 53.05-11.7 37.85-11.7 33.95-2.1Q33.45-0.85 32.45-0.2 31.45 0.45 30.15 0.45L30.15 0.45ZM38.7-13.7L52.15-13.7 46.4-28.1 45.45-31.25 44.5-28 38.7-13.7ZM66.75-30.2Q66.75-33.05 64.39-33.05L64.39-33.05Q63.5-33.05 63.05-32.68 62.59-32.3 62.3-31.8L62.3-31.8 60.75-32.95Q61.84-35.05 64.5-35.05L64.5-35.05Q66.45-35.05 67.64-33.83 68.84-32.6 68.84-30.2L68.84-30.2 68.84-18.15 71.65-18.15Q73.45-18.15 75.15-18.9L75.15-18.9Q76.05-19.3 76.59-19.78 77.15-20.25 77.75-21L77.75-21Q79.8-23.6 81.34-26.55L81.34-26.55Q83.34-30.25 85.25-34.25L85.25-34.25 87.8-34.25Q84.8-28.55 82.9-25.25L82.9-25.25Q81.25-22.3 80.25-20.85L80.25-20.85Q80.05-20.6 79.45-19.75 78.84-18.9 78.4-18.45 77.95-18 77.34-17.55L77.34-17.55 87.9-2.65Q88.15-2.25 88.65-1.95 89.15-1.65 89.7-1.65L89.7-1.65Q90.5-1.65 91.2-2.25L91.2-2.25 92.84-1.1Q92.25-0.4 91.34-0.03 90.45 0.35 89.55 0.35L89.55 0.35Q87.55 0.35 86.25-1.5L86.25-1.5 75.34-16.9Q72.84-16.15 71.05-16.15L71.05-16.15Q70.4-16.15 69.9-16.2 69.39-16.25 68.95-16.25L68.95-16.25 68.95-0.1 66.75-0.1 66.75-30.2ZM99.19-32.25Q98.19-32.25 97.64-32.1 97.09-31.95 96.64-31.65L96.64-31.65Q96.24-31.3 96.09-30.85 95.94-30.4 95.89-29.75L95.89-29.75 93.99-29.75Q94.09-31.9 95.39-33.1L95.39-33.1Q96.59-34.2 99.24-34.2L99.24-34.2 120.59-34.25 120.59-32.25 101.29-32.25 101.29-19.2 114.44-19.2 114.44-17.2 101.29-17.2 101.29-2.05 120.59-2.05 120.59-0.05 99.19-0.05 99.19-32.25ZM150.34 0.8Q146.14 0.8 142.86-1.48 139.59-3.75 138.44-7.45L138.44-7.45 140.34-8.2Q141.29-5.05 144.06-3.13 146.84-1.2 150.39-1.2L150.39-1.2Q153.04-1.2 155.19-2.33 157.34-3.45 158.56-5.43 159.79-7.4 159.79-9.85L159.79-9.85Q159.79-11.75 158.91-13.18 158.04-14.6 155.99-15.9 153.94-17.2 150.24-18.75L150.24-18.75Q146.99-20.1 145.21-21.3 143.44-22.5 142.66-23.85 141.89-25.2 141.89-27.05L141.89-27.05Q141.89-29.3 143.09-31.13 144.29-32.95 146.41-34 148.54-35.05 151.14-35.05L151.14-35.05Q154.54-35.05 156.69-33.45 158.84-31.85 158.84-29.25L158.84-29.25Q158.84-27.3 157.54-26.08 156.24-24.85 154.54-25.05L154.54-25.05 154.69-26.95Q155.59-26.85 156.16-27.48 156.74-28.1 156.74-29.15L156.74-29.15Q156.74-30.85 155.16-31.95 153.59-33.05 151.24-33.05L151.24-33.05Q149.34-33.05 147.66-32.23 145.99-31.4 144.99-30.05 143.99-28.7 143.99-27.15L143.99-27.15Q143.99-25.7 144.59-24.73 145.19-23.75 146.74-22.8 148.29-21.85 151.34-20.55L151.34-20.55Q155.39-18.85 157.66-17.3 159.94-15.75 160.94-14 161.94-12.25 161.94-9.9L161.94-9.9Q161.94-6.8 160.44-4.38 158.94-1.95 156.31-0.58 153.69 0.8 150.34 0.8L150.34 0.8ZM170.94-30.2Q170.94-33.05 168.59-33.05L168.59-33.05Q167.69-33.05 167.24-32.68 166.79-32.3 166.49-31.8L166.49-31.8 164.94-32.95Q166.04-35.05 168.69-35.05L168.69-35.05Q170.64-35.05 171.84-33.83 173.04-32.6 173.04-30.2L173.04-30.2 173.04-18.9 192.79-18.9 192.79-34.25 194.89-34.25 194.89-0.05 192.79-0.05 192.79-16.9 173.04-16.9 173.04-0.05 170.94-0.05 170.94-30.2ZM220.43 0.7Q215.58 0.7 211.66-1.55 207.73-3.8 205.48-7.73 203.23-11.65 203.23-16.55L203.23-16.55 203.23-17.5Q203.23-22.45 205.46-26.48 207.68-30.5 211.56-32.8 215.43-35.1 220.23-35.1L220.23-35.1Q225.03-35.1 228.93-32.8 232.83-30.5 235.08-26.48 237.33-22.45 237.33-17.5L237.33-17.5 237.33-16.55Q237.33-11.6 235.16-7.68 232.98-3.75 229.13-1.53 225.28 0.7 220.43 0.7L220.43 0.7ZM220.28-1.2Q224.48-1.2 227.91-3.2 231.33-5.2 233.28-8.72 235.23-12.25 235.23-16.55L235.23-16.55 235.23-17.5Q235.23-21.85 233.23-25.43 231.23-29 227.78-31.05 224.33-33.1 220.18-33.1L220.18-33.1Q216.03-33.1 212.63-31.05 209.23-29 207.28-25.43 205.33-21.85 205.33-17.5L205.33-17.5 205.33-16.55Q205.33-12.25 207.28-8.72 209.23-5.2 212.66-3.2 216.08-1.2 220.28-1.2L220.28-1.2ZM246.83-32.25Q245.83-32.25 245.28-32.1 244.73-31.95 244.28-31.65L244.28-31.65Q243.88-31.3 243.73-30.85 243.58-30.4 243.53-29.75L243.53-29.75 241.63-29.75Q241.73-31.9 243.03-33.1L243.03-33.1Q244.23-34.2 246.88-34.2L246.88-34.2 257.38-34.25Q261.83-34.3 264.31-31.4 266.78-28.5 266.78-23.8L266.78-23.8Q266.78-18.55 263.71-15.9 260.63-13.25 255.88-13.25L255.88-13.25Q254.33-13.25 252.43-13.5L252.43-13.5 252.43-15.4Q254.98-15.25 255.63-15.25L255.63-15.25Q259.78-15.25 262.23-17.3 264.68-19.35 264.68-23.75L264.68-23.75Q264.68-27.9 262.48-30.08 260.28-32.25 256.68-32.25L256.68-32.25 248.93-32.25 248.93 0 246.83 0 246.83-32.25Z" opacity="1" transform="matrix(1,0,0,1,0,0)" fill="#ffffff" class="wordmark-text-0" data-fill-palette-color="primary" id="text-0"></path></svg></g></svg></g></svg></g></svg></g><g transform="matrix(1,0,0,1,163.45946089189061,0)"><svg viewBox="0 0 29.66562850198951 29.66562850198951" height="29.66562850198951" width="29.66562850198951"><g data-palette-color="#fe6152"><rect width="8.108605123877133" height="29.66562850198951" fill="#fe6152" stroke="transparent" data-fill-palette-color="accent" x="0" fill-opacity="1"></rect><rect width="8.108605123877133" height="29.66562850198951" fill="#fe6152" stroke="transparent" data-fill-palette-color="accent" x="9.888542833996503" fill-opacity="0.75"></rect><rect width="8.108605123877133" height="29.66562850198951" fill="#fe6152" stroke="transparent" data-fill-palette-color="accent" x="19.777085667993006" fill-opacity="0.5"></rect></g></svg></g></svg></g></svg></g><g><path d="M4.276 99.758c-0.18 0.506-0.282 0.911-0.305 1.216-0.025 0.311-0.003 0.608 0.068 0.89v0c0.111 0.268 0.267 0.48 0.468 0.637 0.201 0.157 0.461 0.306 0.78 0.448v0l-0.516 1.451c-1.076-0.44-1.799-1.1-2.17-1.979v0c-0.347-0.807-0.28-1.884 0.199-3.231v0l5.827-16.367 1.527 0.544-5.27 14.802 9.957 3.545 3.612-10.147 1.526 0.544-3.612 10.146 13.086 4.659-0.57 1.602z" fill="#fe6152" data-fill-palette-color="accent"></path><path d="M41.027 82.474c-0.444 0.615-1.012 1.024-1.705 1.227-0.694 0.194-1.42 0.15-2.177-0.131v0l0.729-1.422c0.302 0.086 0.632 0.076 0.99-0.031 0.358-0.106 0.649-0.314 0.872-0.624v0c0.188-0.261 0.273-0.573 0.253-0.935-0.02-0.362-0.108-0.665-0.263-0.909v0l-14.539-23.733 0.188-0.261 29.536 6.886-1.066 1.478-9.945-2.335-7.203 9.983 4.453 7.11c0.393 0.614 0.573 1.241 0.542 1.88-0.035 0.645-0.257 1.25-0.665 1.817zM35.789 70.156l6.372-8.832-12.187-3.046-2.513-0.87 1.677 2.166z" fill="#fe6152" data-fill-palette-color="accent"></path><path d="M52.275 32.821c-0.893-1.251-1.855-1.508-2.887-0.771v0c-0.393 0.281-0.632 0.575-0.718 0.883-0.08 0.304-0.107 0.612-0.082 0.924v0l-1.562-0.023c-0.173-1.27 0.323-2.32 1.486-3.15v0c0.858-0.612 1.739-0.837 2.646-0.676 0.916 0.163 1.75 0.771 2.502 1.825v0l5.671 7.947 1.844-1.316c0.792-0.565 1.443-1.281 1.953-2.148v0c0.269-0.455 0.452-0.875 0.55-1.258 0.092-0.379 0.15-0.829 0.175-1.349v0c0.087-1.785 0.009-3.568-0.232-5.35v0c-0.282-2.255-0.633-4.56-1.053-6.915v0l1.679-1.199c0.467 3.45 0.803 6.195 1.006 8.235v0c0.201 1.818 0.307 3.202 0.316 4.152v0c-0.006 0.177-0.007 0.545-0.003 1.103 0.003 0.559-0.025 1.011-0.083 1.358-0.056 0.337-0.145 0.697-0.267 1.081v0l13.966 4.859c0.234 0.097 0.507 0.133 0.819 0.108 0.312-0.025 0.591-0.125 0.837-0.301v0c0.35-0.249 0.584-0.614 0.703-1.095v0l1.627-0.024c-0.04 0.498-0.201 0.972-0.483 1.421-0.276 0.445-0.611 0.807-1.004 1.087v0c-0.879 0.628-1.896 0.739-3.05 0.335v0l-14.43-5.023c-0.86 1.117-1.686 1.958-2.478 2.523v0c-0.284 0.203-0.543 0.371-0.777 0.505-0.24 0.138-0.458 0.277-0.655 0.418v0l7.596 10.642-1.45 1.035z" fill="#fe6152" data-fill-palette-color="accent"></path><path d="M89.304 9.677c-0.508 0.174-0.889 0.346-1.142 0.518-0.26 0.174-0.478 0.376-0.655 0.607v0c-0.14 0.254-0.209 0.508-0.207 0.762 0.002 0.255 0.047 0.551 0.134 0.89v0l-1.457 0.498c-0.325-1.116-0.258-2.093 0.201-2.93v0c0.416-0.773 1.301-1.391 2.653-1.853v0l16.351-5.629 0.524 1.534-14.792 5.053 3.417 10.001 10.077-3.443 0.524 1.534-10.078 3.443 3.967 11.611 14.792-5.054 0.524 1.533-16.401 5.604z" fill="#fe6152" data-fill-palette-color="accent"></path><path d="M159.296 28.705c-2.242-0.345-4.141-1.259-5.699-2.741-1.564-1.483-2.499-3.257-2.806-5.32v0l1.616-0.373c0.245 1.762 1.027 3.271 2.348 4.527 1.328 1.25 2.937 2.021 4.827 2.312v0c1.419 0.219 2.749 0.118 3.988-0.302 1.24-0.427 2.266-1.114 3.078-2.062 0.819-0.953 1.33-2.087 1.531-3.4v0c0.155-1.008 0.056-1.93-0.297-2.765-0.347-0.834-1.014-1.68-2.002-2.539-0.987-0.865-2.405-1.864-4.254-2.997v0c-1.621-0.983-2.856-1.869-3.705-2.659-0.85-0.783-1.425-1.567-1.725-2.353-0.306-0.787-0.384-1.672-0.233-2.653v0c0.185-1.2 0.674-2.239 1.468-3.115 0.793-0.876 1.801-1.508 3.021-1.897 1.22-0.382 2.523-0.467 3.909-0.253v0c1.811 0.279 3.224 0.934 4.239 1.966 1.017 1.026 1.418 2.235 1.204 3.628v0c-0.159 1.035-0.634 1.827-1.426 2.377-0.797 0.549-1.642 0.698-2.533 0.445v0l0.352-1.493c0.476 0.128 0.893 0.046 1.25-0.246 0.356-0.285 0.577-0.705 0.663-1.262v0c0.14-0.909-0.162-1.722-0.907-2.442-0.752-0.713-1.755-1.167-3.009-1.359v0c-1.015-0.156-2.003-0.085-2.966 0.215-0.964 0.306-1.766 0.777-2.407 1.411-0.649 0.64-1.037 1.375-1.164 2.204v0c-0.118 0.769-0.056 1.441 0.188 2.015 0.239 0.566 0.733 1.169 1.484 1.807 0.745 0.631 1.879 1.42 3.403 2.368v0c2.023 1.235 3.578 2.36 4.664 3.376 1.086 1.016 1.822 2.032 2.209 3.049 0.394 1.011 0.495 2.144 0.302 3.397v0c-0.255 1.658-0.884 3.072-1.886 4.242-1.002 1.17-2.259 2.015-3.772 2.535-1.512 0.514-3.163 0.633-4.953 0.357z" fill="#fe6152" data-fill-palette-color="accent"></path><path d="M195.688 13.561c0.674-1.381 0.44-2.35-0.7-2.906v0c-0.434-0.212-0.807-0.282-1.118-0.209-0.305 0.075-0.589 0.198-0.852 0.368v0l-0.725-1.383c1.034-0.758 2.193-0.823 3.478-0.197v0c0.947 0.462 1.569 1.131 1.866 2.007 0.288 0.879 0.148 1.901-0.42 3.065v0l-4.01 8.224 14.376 7.01 5.448-11.173 1.529 0.746-12.141 24.897-1.529-0.745 5.982-12.268-14.376-7.01-5.982 12.267-1.529-0.745z" fill="#fe6152" data-fill-palette-color="accent"></path><path d="M224.662 64.4c-1.821-1.879-3.033-4.003-3.637-6.371-0.599-2.363-0.562-4.721 0.111-7.074 0.673-2.343 1.961-4.437 3.865-6.281v0l0.549-0.533c1.918-1.858 4.076-3.113 6.473-3.763 2.397-0.65 4.77-0.656 7.119-0.016 2.348 0.64 4.424 1.89 6.226 3.75v0c1.802 1.86 2.991 3.979 3.566 6.355 0.575 2.377 0.504 4.758-0.213 7.144-0.716 2.385-2.033 4.507-3.951 6.365v0l-0.549 0.533c-1.923 1.863-4.052 3.109-6.387 3.736-2.34 0.632-4.665 0.619-6.975-0.039-2.305-0.653-4.371-1.922-6.197-3.806zM225.684 63.241c1.578 1.629 3.397 2.735 5.457 3.318 2.06 0.573 4.141 0.575 6.242 0.006 2.102-0.57 3.986-1.662 5.654-3.278v0l0.549-0.532c1.687-1.634 2.848-3.512 3.485-5.633 0.631-2.116 0.698-4.227 0.199-6.332-0.503-2.11-1.534-3.97-3.094-5.579v0c-1.56-1.61-3.374-2.687-5.444-3.232-2.075-0.55-4.17-0.533-6.286 0.05-2.121 0.588-4.025 1.7-5.712 3.334v0l-0.549 0.532c-1.667 1.616-2.819 3.465-3.455 5.548-0.635 2.083-0.697 4.165-0.183 6.247 0.513 2.072 1.559 3.923 3.137 5.551z" fill="#fe6152" data-fill-palette-color="accent"></path><path d="M266.803 77.945c-0.229-0.485-0.443-0.844-0.642-1.077-0.202-0.239-0.427-0.433-0.676-0.583v0c-0.268-0.111-0.528-0.151-0.781-0.121-0.253 0.03-0.543 0.108-0.869 0.232v0l-0.658-1.392c1.073-0.447 2.051-0.49 2.934-0.128v0c0.815 0.328 1.528 1.137 2.138 2.43v0l3.668 7.674c1.05 2.161 1.15 4.18 0.301 6.058-0.844 1.875-2.412 3.354-4.706 4.437v0c-2.561 1.209-4.844 1.371-6.851 0.486-2-0.888-3.549-2.495-4.646-4.819v0c-0.355-0.752-0.691-1.621-1.008-2.607v0l1.392-0.658c0.515 1.278 0.846 2.075 0.996 2.391v0c0.957 2.027 2.218 3.401 3.784 4.124 1.566 0.723 3.422 0.577 5.57-0.438v0c2.027-0.957 3.317-2.223 3.872-3.798 0.555-1.575 0.418-3.24-0.41-4.994v0l-2.682-5.679-23.619 11.152-0.726-1.538z" fill="#fe6152" data-fill-palette-color="accent"></path><path d="M34.368 176.533c-0.183-0.512-0.363-0.897-0.54-1.154-0.175-0.251-0.383-0.465-0.625-0.643v0c-0.249-0.139-0.504-0.205-0.765-0.197-0.257-0.001-0.557 0.046-0.901 0.14v0l-0.521-1.46c1.124-0.344 2.112-0.291 2.964 0.16v0c0.781 0.412 1.414 1.298 1.899 2.657v0l5.89 16.504-1.536 0.548-5.325-14.921-10.039 3.583 3.65 10.228-1.535 0.548-3.651-10.228-13.195 4.709-0.579-1.621z" fill="#fe6152" data-fill-palette-color="accent"></path><path d="M23.767 216.905c-0.448-0.62-0.656-1.293-0.626-2.019 0.031-0.726 0.302-1.41 0.815-2.053v0l1.127 1.148c-0.173 0.265-0.268 0.586-0.286 0.963-0.008 0.378 0.1 0.723 0.324 1.033v0c0.189 0.261 0.46 0.442 0.813 0.542 0.359 0.096 0.679 0.11 0.96 0.04v0l27.331-6.387 0.189 0.261-15.971 26.093-1.079-1.493 5.397-8.775-7.271-10.07-8.219 2.011c-0.711 0.174-1.369 0.144-1.976-0.089-0.607-0.232-1.116-0.634-1.528-1.205zM37.227 215.79l6.434 8.912 6.78-10.693 1.635-2.137-2.608 0.927z" fill="#fe6152" data-fill-palette-color="accent"></path><path d="M68.87 230.847c0.9-1.262 0.828-2.265-0.215-3.009v0c-0.399-0.284-0.758-0.417-1.077-0.397-0.317 0.029-0.62 0.106-0.907 0.231v0l-0.489-1.499c1.149-0.582 2.31-0.454 3.485 0.384v0c0.863 0.616 1.37 1.385 1.519 2.307 0.14 0.924-0.168 1.916-0.923 2.976v0l-5.716 8.015 1.86 1.327c0.798 0.569 1.692 0.956 2.684 1.16v0c0.523 0.11 0.984 0.146 1.382 0.107 0.394-0.032 0.841-0.121 1.341-0.267v0c1.734-0.502 3.411-1.165 5.028-1.989v0c2.059-1.004 4.141-2.091 6.245-3.261v0l1.696 1.21c-3.133 1.573-5.642 2.792-7.528 3.656v0c-1.663 0.784-2.946 1.34-3.848 1.669v0c-0.165 0.047-0.516 0.163-1.053 0.349-0.531 0.19-0.97 0.314-1.316 0.372-0.337 0.056-0.711 0.09-1.123 0.101v0l-0.052 14.911c-0.015 0.253 0.04 0.527 0.167 0.823 0.125 0.287 0.31 0.518 0.556 0.694v0c0.355 0.253 0.784 0.357 1.287 0.311v0l0.548 1.554c-0.49 0.12-0.993 0.12-1.508-0.001-0.516-0.121-0.973-0.323-1.372-0.607v0c-0.885-0.631-1.325-1.563-1.319-2.796v0l0.056-15.401c-1.343-0.463-2.413-0.979-3.211-1.548v0c-0.29-0.207-0.539-0.401-0.747-0.583-0.203-0.178-0.405-0.339-0.608-0.482v0l-7.662 10.743-1.459-1.041z" fill="#fe6152" data-fill-palette-color="accent"></path><path d="M99.588 247.054c-0.514-0.176-0.927-0.274-1.24-0.295-0.305-0.019-0.603 0.01-0.891 0.089v0c-0.264 0.108-0.474 0.267-0.631 0.475-0.161 0.2-0.311 0.465-0.452 0.793v0l-1.466-0.501c0.43-1.094 1.087-1.834 1.97-2.22v0c0.809-0.355 1.896-0.299 3.262 0.168v0l16.519 5.601-0.527 1.543-14.916-5.096-3.446 10.087 10.163 3.472-0.527 1.543-10.163-3.472-4.002 11.715 14.916 5.096-0.528 1.543-16.544-5.652z" fill="#fe6152" data-fill-palette-color="accent"></path><path d="M162.434 279.863c-2.262 0.345-4.369 0.038-6.321-0.92-1.944-0.953-3.38-2.38-4.308-4.281v0l1.441-0.831c0.775 1.613 1.988 2.823 3.639 3.63 1.651 0.814 3.432 1.075 5.343 0.784v0c1.426-0.217 2.67-0.719 3.731-1.506 1.069-0.781 1.851-1.752 2.345-2.913 0.501-1.169 0.651-2.41 0.451-3.724v0c-0.157-1.028-0.529-1.888-1.116-2.579-0.588-0.698-1.489-1.31-2.704-1.838-1.208-0.535-2.871-1.069-4.989-1.601v0c-1.862-0.456-3.319-0.933-4.372-1.431-1.054-0.504-1.846-1.086-2.374-1.746-0.529-0.666-0.87-1.496-1.021-2.491v0c-0.185-1.214-0.027-2.361 0.473-3.442 0.494-1.08 1.268-1.989 2.323-2.727 1.062-0.739 2.292-1.215 3.692-1.428v0c1.831-0.279 3.389-0.076 4.675 0.611 1.291 0.679 2.044 1.718 2.257 3.117v0c0.161 1.055-0.06 1.964-0.663 2.728-0.596 0.763-1.36 1.161-2.292 1.195v0l-0.114-1.551c0.492-0.021 0.869-0.224 1.128-0.61 0.255-0.378 0.338-0.853 0.252-1.423v0c-0.139-0.909-0.678-1.597-1.618-2.064-0.932-0.462-2.032-0.596-3.3-0.403v0c-1.022 0.156-1.95 0.525-2.784 1.106-0.834 0.582-1.465 1.276-1.892 2.081-0.426 0.812-0.575 1.635-0.448 2.471v0c0.118 0.776 0.377 1.405 0.777 1.887 0.405 0.474 1.064 0.903 1.978 1.287 0.914 0.383 2.243 0.798 3.987 1.245v0c2.322 0.583 4.157 1.199 5.505 1.849 1.355 0.649 2.372 1.403 3.054 2.263 0.681 0.86 1.118 1.924 1.311 3.191v0c0.254 1.665 0.079 3.212-0.524 4.641-0.61 1.43-1.565 2.621-2.866 3.573-1.3 0.958-2.852 1.575-4.656 1.85z" fill="#fe6152" data-fill-palette-color="accent"></path><path d="M182.924 247.792c-0.677-1.394-1.592-1.812-2.745-1.252v0c-0.441 0.214-0.726 0.464-0.855 0.75-0.133 0.296-0.213 0.599-0.241 0.911v0l-1.549-0.288c0.039-1.287 0.708-2.246 2.005-2.875v0c0.96-0.466 1.878-0.542 2.753-0.229 0.879 0.319 1.602 1.065 2.171 2.235v0l4.031 8.304 14.515-7.046-5.473-11.274 1.539-0.747 12.198 25.127-1.539 0.747-6.009-12.378-14.515 7.047 6.009 12.378-1.539 0.747z" fill="#fe6152" data-fill-palette-color="accent"></path><path d="M240.086 237.779c-1.838 1.891-3.944 3.176-6.316 3.855-2.363 0.679-4.74 0.712-7.131 0.1-2.381-0.612-4.529-1.848-6.444-3.709v0l-0.556-0.541c-1.934-1.88-3.265-4.016-3.991-6.406-0.727-2.4-0.806-4.793-0.237-7.179 0.578-2.386 1.777-4.514 3.597-6.386v0c1.824-1.876 3.923-3.14 6.295-3.79 2.382-0.651 4.786-0.649 7.211 0.004 2.424 0.644 4.604 1.907 6.538 3.787v0l0.556 0.54c1.934 1.88 3.252 3.99 3.955 6.329 0.712 2.339 0.769 4.682 0.17 7.031-0.588 2.348-1.804 4.47-3.647 6.365zM238.891 236.785c1.595-1.641 2.65-3.511 3.166-5.611 0.521-2.095 0.463-4.192-0.174-6.29-0.637-2.098-1.795-3.963-3.475-5.595v0l-0.556-0.541c-1.698-1.651-3.624-2.765-5.777-3.342-2.153-0.577-4.286-0.582-6.399-0.016-2.108 0.571-3.951 1.667-5.527 3.288v0c-1.576 1.621-2.61 3.484-3.103 5.589-0.483 2.104-0.398 4.217 0.254 6.339 0.656 2.117 1.834 4 3.532 5.651v0l0.556 0.541c1.679 1.632 3.576 2.737 5.691 3.314 2.12 0.573 4.217 0.571 6.292-0.003 2.085-0.575 3.924-1.683 5.52-3.324z" fill="#fe6152" data-fill-palette-color="accent"></path><path d="M237.832 195.573c-0.233 0.491-0.378 0.89-0.434 1.197-0.054 0.301-0.058 0.6-0.013 0.897v0c0.078 0.275 0.212 0.501 0.401 0.68 0.181 0.182 0.426 0.362 0.737 0.538v0l-0.664 1.401c-1.038-0.552-1.699-1.288-1.983-2.21v0c-0.261-0.844-0.082-1.918 0.536-3.221v0l3.637-7.766c1.013-2.2 2.522-3.572 4.525-4.116 2.003-0.543 4.162-0.266 6.478 0.833v0c2.583 1.225 4.168 2.901 4.756 5.028 0.585 2.134 0.324 4.368-0.782 6.703v0c-0.362 0.764-0.828 1.583-1.399 2.456v0l-1.4-0.664c0.668-1.221 1.076-1.989 1.226-2.304v0c0.969-2.043 1.236-3.907 0.801-5.591-0.434-1.684-1.734-3.039-3.899-4.065v0c-2.043-0.969-3.859-1.165-5.446-0.588-1.579 0.573-2.789 1.748-3.632 3.525v0l-2.708 5.711 23.802 11.284-0.737 1.556z" fill="#fe6152" data-fill-palette-color="accent"></path><path d="M2.316 143.481c0-5.997 4.861-10.858 10.858-10.858 5.997 0 10.858 4.861 10.858 10.858 0 5.997-4.861 10.858-10.858 10.859-5.997 0-10.858-4.861-10.858-10.859z" fill="#fe6152" data-fill-palette-color="accent"></path><path d="M255.968 143.481c0-5.997 4.861-10.858 10.858-10.858 5.997 0 10.858 4.861 10.859 10.858 0 5.997-4.861 10.858-10.859 10.859-5.997 0-10.858-4.861-10.858-10.859z" fill="#fe6152" data-fill-palette-color="accent"></path></g></svg></g><defs></defs></svg><rect width="280" height="280" fill="none" stroke="none" visibility="hidden"></rect></g></svg></g></svg>